<?xml version="1.0" encoding="utf-8"?>
<!-- Generator: Adobe Illustrator 16.0.0, SVG Export Plug-In . SVG Version: 6.00 Build 0)  -->
<!DOCTYPE svg PUBLIC "-//W3C//DTD SVG 1.1//EN" "http://www.w3.org/Graphics/SVG/1.1/DTD/svg11.dtd">
<svg version="1.1" id="Calque_1" xmlns="http://www.w3.org/2000/svg" xmlns:xlink="http://www.w3.org/1999/xlink" x="0px" y="0px"
	 width="40px" height="40px" viewBox="0 0 40 40" enable-background="new 0 0 40 40" xml:space="preserve">
<g>
	<path d="M20.085,40.066c-11.059,0-20.024-8.969-20.024-20.033C0.061,8.969,9.026,0,20.085,0c11.06,0,20.024,9.015,20.024,20.033
		C40.109,31.05,31.145,40.066,20.085,40.066z M20.085,1.32C9.754,1.32,1.381,9.698,1.381,20.033
		c0,10.334,8.373,18.713,18.704,18.713S38.79,30.367,38.79,20.033C38.79,9.698,30.416,1.32,20.085,1.32z"/>
</g>
<path d="M31.372,7.193l-9.831,13.749l8.101,10.107C29.642,31.05,45.48,22.673,31.372,7.193z M29.414,24.632
	c-2.229,0-4.049-1.82-4.049-4.052s1.82-4.054,4.049-4.054c2.23,0,4.052,1.822,4.052,4.054S31.645,24.632,29.414,24.632z"/>
<path d="M8.889,7.193c-14.108,15.436,1.729,23.813,1.729,23.813l8.101-10.063L8.889,7.193z M10.846,24.632
	c-2.229,0-4.05-1.82-4.05-4.052s1.821-4.054,4.05-4.054c2.23,0,4.051,1.822,4.051,4.054S13.077,24.632,10.846,24.632z"/>
</svg>
